<svg width="94" height="91" viewBox="0 0 94 91" fill="none" xmlns="http://www.w3.org/2000/svg">
<path d="M45.9668 0C38.8826 0 32.5732 3.50151 28.5066 8.95454C33.4787 5.36854 39.4907 3.27145 45.9668 3.27145C52.4429 3.27145 58.4549 5.36854 63.4269 8.95454C59.3604 3.50151 53.051 0 45.9668 0Z" fill="white"/>
<path d="M24.1122 19.2513C24.8398 19.1407 25.5838 19.0834 26.3403 19.0834C31.1005 19.0834 35.3593 21.3495 38.2016 24.9155C35.5273 19.9516 30.5404 16.5573 24.7884 16.3658C24.6177 16.3601 24.4464 16.3572 24.2744 16.3572C23.1208 16.3572 21.9957 16.486 20.9114 16.7307C13.6834 18.3617 8.26333 25.1425 8.26333 33.2597C8.26333 39.5601 11.5287 45.0553 16.3702 47.9623C12.9923 44.9618 10.8458 40.4658 10.8458 35.4407C10.8458 29.582 13.7634 24.4428 18.1484 21.5539C19.9271 20.382 21.9474 19.5804 24.1122 19.2513Z" fill="white"/>
<path d="M66.9869 15.8579C61.5211 16.2814 56.8177 19.6016 54.2485 24.3702C57.0908 20.8042 61.3496 18.5382 66.1097 18.5382C66.6486 18.5382 67.1809 18.5672 67.7056 18.6239C69.6647 18.8355 71.5158 19.4325 73.1897 20.3418C78.1866 23.0563 81.6043 28.5545 81.6043 34.8954C81.6043 39.9206 79.4578 44.4165 76.0799 47.4171C80.9214 44.5101 84.1868 39.0148 84.1868 32.7145C84.1868 24.2105 78.2379 17.1734 70.4937 15.9878C69.7369 15.872 68.9629 15.812 68.1757 15.812C67.7758 15.812 67.3794 15.8275 66.9869 15.8579Z" fill="white"/>
<path d="M46.4833 56.9777C55.3668 56.9777 60.1702 55.5237 61.4614 54.7967C57.7599 52.9793 50.3569 46.3455 50.3569 38.7121C50.3569 31.0787 55.8661 30.9879 58.6207 31.3514L53.4558 25.8989H49.5822C46.0701 25.8989 41.4045 22.0823 39.5107 20.1739C40.9569 23.4454 43.9009 26.4442 45.1921 27.5347C45.1921 27.5347 40.5437 31.3514 40.5437 39.8026C40.5437 46.5636 34.1737 52.6158 30.9887 54.7967C32.4521 55.5237 37.5997 56.9777 46.4833 56.9777Z" fill="white"/>
<path d="M45.8071 70.7234C42.3566 71.8883 38.679 72.5171 34.8624 72.5171C24.0914 72.5171 14.4284 67.509 7.84889 59.5782C16.5987 72.0589 30.6459 80.1505 46.4833 80.1505C62.608 80.1505 76.877 71.7626 85.5887 58.8946C78.6316 67.2464 68.4345 72.5171 57.0713 72.5171C53.1492 72.5171 49.366 71.8892 45.8071 70.7234Z" fill="white"/>
<path d="M0 33.7166C0.0939729 53.958 15.6664 70.3361 34.8624 70.3361C37.4816 70.3361 40.0333 70.0312 42.4875 69.4531C36.451 66.7993 31.2029 62.5475 27.217 57.1982C15.1736 52.8021 5.4146 44.353 0 33.7166Z" fill="#B2061E"/>
<path d="M94 31.0788C94 52.76 77.3508 70.3361 56.813 70.3361C54.1312 70.3361 51.5158 70.0364 48.995 69.4671C47.8618 69.2111 46.7478 68.9007 45.6555 68.5384C39.543 66.5114 34.1107 62.8632 29.8109 58.071C34.9606 59.6599 40.4817 60.5218 46.2251 60.5218C51.0927 60.5218 55.8007 59.9027 60.2582 58.7466C61.2488 58.4898 62.2269 58.2064 63.1917 57.8974C77.4474 53.3316 88.7858 43.1744 93.9935 30.3358C93.9978 30.5829 94 30.8306 94 31.0788Z" fill="#B2061E"/>
<path d="M53.7141 82.0588H40.8019L47.258 90.51L53.7141 82.0588Z" fill="white"/>
</svg>
