<svg width="88" height="80" viewBox="0 0 88 80" fill="none" xmlns="http://www.w3.org/2000/svg">
<path d="M43.0327 0C36.4008 0 30.494 3.09492 26.6871 7.91474C31.3417 4.74515 36.9701 2.89157 43.0327 2.89157C49.0954 2.89157 54.7238 4.74514 59.3784 7.91474C55.5715 3.09492 49.6647 0 43.0327 0Z" fill="#132452"/>
<path d="M22.5732 17.0158C23.2543 16.9181 23.9507 16.8675 24.659 16.8675C29.1154 16.8675 33.1023 18.8704 35.7632 22.0223C33.2596 17.6349 28.5911 14.6346 23.2061 14.4654C23.0464 14.4604 22.886 14.4578 22.725 14.4578C21.645 14.4578 20.5918 14.5717 19.5766 14.7879C12.81 16.2296 7.73589 22.223 7.73589 29.3976C7.73589 34.9664 10.7928 39.8235 15.3253 42.3929C12.163 39.7408 10.1535 35.767 10.1535 31.3253C10.1535 26.147 12.8849 21.6045 16.99 19.0511C18.6552 18.0153 20.5465 17.3067 22.5732 17.0158Z" fill="#132452"/>
<path d="M62.7112 14.0165C57.5942 14.3908 53.191 17.3254 50.7858 21.5404C53.4467 18.3885 57.4337 16.3855 61.89 16.3855C62.3944 16.3855 62.8928 16.4112 63.384 16.4613C65.2181 16.6483 66.951 17.176 68.518 17.9797C73.1959 20.379 76.3955 25.2388 76.3955 30.8434C76.3955 35.285 74.386 39.2589 71.2237 41.911C75.7562 39.3416 78.8131 34.4844 78.8131 28.9157C78.8131 21.3992 73.244 15.1792 65.9941 14.1313C65.2856 14.0289 64.561 13.9759 63.824 13.9759C63.4497 13.9759 63.0786 13.9896 62.7112 14.0165Z" fill="#132452"/>
<path d="M43.5163 50.3615C51.8328 50.3615 56.3295 49.0763 57.5383 48.4337C54.0731 46.8273 47.1427 40.9639 47.1427 34.2169C47.1427 27.4699 52.3002 27.3896 54.879 27.7108L50.0438 22.8916H46.4174C43.1294 22.8916 38.7617 19.5181 36.9888 17.8313C38.3426 20.7229 41.0987 23.3735 42.3075 24.3374C42.3075 24.3374 37.9558 27.7108 37.9558 35.1807C37.9558 41.1566 31.9924 46.506 29.0107 48.4337C30.3807 49.0763 35.1997 50.3615 43.5163 50.3615Z" fill="#132452"/>
<path d="M42.8832 62.511C39.6529 63.5406 36.2101 64.0964 32.6371 64.0964C22.5536 64.0964 13.5074 59.6698 7.3479 52.66C15.5392 63.6914 28.6898 70.8434 43.5163 70.8434C58.6118 70.8434 71.97 63.4296 80.1256 52.0558C73.6126 59.4378 64.0663 64.0964 53.4284 64.0964C49.7567 64.0964 46.215 63.5414 42.8832 62.511Z" fill="#132452"/>
<path d="M0 29.8014C0.0879746 47.6924 14.6664 62.1687 32.6371 62.1687C35.0891 62.1687 37.478 61.8992 39.7756 61.3883C34.1243 59.0426 29.2112 55.2845 25.4798 50.5564C14.2051 46.6707 5.06898 39.2028 0 29.8014Z" fill="#B2061E"/>
<path d="M88 27.4699C88 46.6335 72.4135 62.1687 53.1867 62.1687C50.6761 62.1687 48.2275 61.9038 45.8677 61.4006C44.8068 61.1743 43.7639 60.8999 42.7413 60.5798C37.019 58.7881 31.9334 55.5635 27.908 51.3278C32.729 52.7322 37.8977 53.494 43.2745 53.494C47.8315 53.494 52.239 52.9468 56.412 51.925C57.3393 51.6979 58.255 51.4475 59.1582 51.1743C72.504 47.1387 83.1186 38.161 87.9939 26.8132C87.998 27.0316 88 27.2505 88 27.4699Z" fill="#B2061E"/>
<path d="M50.2855 72.5301H38.1976L44.2415 80L50.2855 72.5301Z" fill="#132452"/>
</svg>
