<svg width="510" height="331" viewBox="0 0 510 331" fill="none" xmlns="http://www.w3.org/2000/svg">
<g opacity="0.08">
<path d="M249.394 0C210.959 0 176.727 18.9564 154.664 48.4778C181.64 29.064 214.258 17.7108 249.394 17.7108C284.53 17.7108 317.149 29.064 344.125 48.4778C322.062 18.9564 287.83 0 249.394 0Z" fill="white"/>
<path d="M130.822 104.222C134.769 103.623 138.805 103.313 142.91 103.313C168.737 103.313 191.843 115.581 207.264 134.887C192.754 108.013 165.698 89.6372 134.49 88.6005C133.564 88.5697 132.635 88.5542 131.701 88.5542C125.443 88.5542 119.339 89.2514 113.455 90.5762C74.2398 99.4062 44.833 136.116 44.833 180.06C44.833 214.169 62.5491 243.919 88.8172 259.657C70.4902 243.412 58.844 219.073 58.844 191.867C58.844 160.15 74.6736 132.328 98.4646 116.688C108.115 110.343 119.076 106.004 130.822 104.222Z" fill="white"/>
<path d="M363.44 85.8508C333.785 88.1435 308.266 106.118 294.327 131.935C309.748 112.629 332.854 100.361 358.681 100.361C361.604 100.361 364.492 100.519 367.339 100.825C377.968 101.971 388.011 105.203 397.093 110.126C424.204 124.821 442.747 154.587 442.747 188.916C442.747 216.121 431.101 240.461 412.774 256.705C439.042 240.967 456.758 211.217 456.758 177.108C456.758 131.07 424.482 92.9727 382.466 86.5543C378.36 85.9271 374.16 85.6024 369.889 85.6024C367.72 85.6024 365.569 85.6862 363.44 85.8508Z" fill="white"/>
<path d="M252.197 308.464C300.395 308.464 326.455 300.592 333.461 296.657C313.378 286.817 273.213 250.904 273.213 209.578C273.213 168.253 303.103 167.761 318.048 169.729L290.026 140.211H269.01C249.955 140.211 224.641 119.548 214.367 109.217C222.213 126.928 238.186 143.163 245.191 149.066C245.191 149.066 219.971 169.729 219.971 215.482C219.971 252.084 185.411 284.849 168.13 296.657C176.07 300.592 203.999 308.464 252.197 308.464Z" fill="white"/>
<path d="M248.528 382.88C229.807 389.186 209.854 392.591 189.147 392.591C130.708 392.591 78.2816 365.478 42.5844 322.542C90.0567 390.11 166.27 433.916 252.197 433.916C339.682 433.916 417.099 388.506 464.364 318.842C426.618 364.056 371.293 392.591 309.642 392.591C288.363 392.591 267.837 389.191 248.528 382.88Z" fill="white"/>
<path d="M0 182.534C0.509853 292.116 84.9985 380.783 189.147 380.783C203.358 380.783 217.202 379.133 230.517 376.003C197.766 361.636 169.292 338.618 147.667 309.658C82.325 285.858 29.3771 240.117 0 182.534Z" fill="white"/>
<path d="M510 168.253C510 285.63 419.669 380.783 308.241 380.783C293.691 380.783 279.5 379.161 265.824 376.078C259.676 374.693 253.632 373.012 247.705 371.051C214.542 360.077 185.069 340.326 161.74 314.383C189.68 322.984 219.635 327.651 250.796 327.651C277.205 327.651 302.748 324.299 326.933 318.041C332.307 316.65 337.614 315.116 342.848 313.443C420.193 288.725 481.71 233.736 509.965 164.231C509.988 165.569 510 166.91 510 168.253Z" fill="white"/>
<path d="M291.427 444.247H221.372L256.4 490L291.427 444.247Z" fill="white"/>
</g>
</svg>
