<svg width="94" height="92" viewBox="0 0 94 92" fill="none" xmlns="http://www.w3.org/2000/svg">
<path d="M45.9668 0.806396C38.8826 0.806396 32.5732 4.30784 28.5066 9.76075C33.4787 6.17482 39.4907 4.07777 45.9668 4.07777C52.4429 4.07777 58.4549 6.17482 63.427 9.76075C59.3604 4.30783 53.051 0.806396 45.9668 0.806396Z" fill="white"/>
<path d="M24.1122 20.0573C24.8398 19.9467 25.5837 19.8894 26.3403 19.8894C31.1005 19.8894 35.3593 22.1554 38.2016 25.7213C35.5273 20.7576 30.5404 17.3633 24.7884 17.1718C24.6177 17.1661 24.4464 17.1633 24.2744 17.1633C23.1208 17.1633 21.9957 17.2921 20.9114 17.5368C13.6834 19.1677 8.26333 25.9484 8.26333 34.0654C8.26333 40.3656 11.5287 45.8607 16.3702 48.7677C12.9923 45.7672 10.8458 41.2714 10.8458 36.2463C10.8458 30.3878 13.7634 25.2487 18.1484 22.3598C19.9271 21.188 21.9474 20.3864 24.1122 20.0573Z" fill="white"/>
<path d="M66.9869 16.6639C61.5211 17.0874 56.8177 20.4075 54.2485 25.1761C57.0908 21.6102 61.3496 19.3442 66.1097 19.3442C66.6486 19.3442 67.1809 19.3732 67.7056 19.4299C69.6647 19.6415 71.5158 20.2384 73.1897 21.1477C78.1866 23.8622 81.6043 29.3603 81.6043 35.7011C81.6043 40.7261 79.4578 45.222 76.0799 48.2224C80.9214 45.3155 84.1868 39.8204 84.1868 33.5202C84.1868 25.0164 78.2379 17.9794 70.4937 16.7939C69.7369 16.678 68.9629 16.618 68.1757 16.618C67.7758 16.618 67.3794 16.6335 66.9869 16.6639Z" fill="white"/>
<path d="M46.4833 57.7829C55.3668 57.7829 60.1702 56.3289 61.4614 55.6019C57.7599 53.7845 50.3569 47.1509 50.3569 39.5177C50.3569 31.8845 55.8661 31.7936 58.6207 32.1571L53.4558 26.7048H49.5822C46.0701 26.7048 41.4045 22.8882 39.5107 20.9799C40.9569 24.2513 43.9009 27.25 45.1921 28.3405C45.1921 28.3405 40.5437 32.1571 40.5437 40.6081C40.5437 47.369 34.1737 53.421 30.9887 55.6019C32.4521 56.3289 37.5997 57.7829 46.4833 57.7829Z" fill="white"/>
<path d="M45.8071 71.5283C42.3566 72.6931 38.679 73.3219 34.8624 73.3219C24.0914 73.3219 14.4284 68.3139 7.84889 60.3833C16.5987 72.8637 30.6459 80.9551 46.4833 80.9551C62.608 80.9551 76.877 72.5675 85.5887 59.6997C78.6316 68.0514 68.4345 73.3219 57.0713 73.3219C53.1492 73.3219 49.366 72.694 45.8071 71.5283Z" fill="white"/>
<path d="M0 34.5223C0.0939729 54.7632 15.6664 71.141 34.8624 71.141C37.4816 71.141 40.0333 70.8361 42.4875 70.258C36.451 67.6042 31.2029 63.3526 27.217 58.0034C15.1736 53.6074 5.4146 45.1585 0 34.5223Z" fill="white"/>
<path d="M94 31.8845C94 53.5653 77.3508 71.141 56.813 71.141C54.1312 71.141 51.5158 70.8413 48.995 70.272C47.8618 70.016 46.7478 69.7056 45.6555 69.3434C39.543 67.3164 34.1107 63.6682 29.8109 58.8762C34.9606 60.465 40.4817 61.3269 46.2251 61.3269C51.0927 61.3269 55.8007 60.7078 60.2582 59.5518C61.2488 59.2949 62.2269 59.0115 63.1917 58.7025C77.4474 54.1368 88.7858 43.9799 93.9935 31.1416C93.9978 31.3887 94 31.6363 94 31.8845Z" fill="white"/>
<path d="M53.7141 82.8634H40.8019L47.258 91.3145L53.7141 82.8634Z" fill="white"/>
</svg>
