<svg width="166" height="172" viewBox="0 0 166 172" fill="none" xmlns="http://www.w3.org/2000/svg">
<g opacity="0.04">
<path d="M81.2274 1.78319C65.935 5.88077 54.2255 16.6608 48.4227 30.1175C57.1989 19.939 69.0328 12.191 83.0125 8.44517C96.9922 4.69932 111.115 5.49237 123.804 9.91903C112.051 1.1666 96.5198 -2.3144 81.2274 1.78319Z" fill="#132452"/>
<path d="M44.555 53.6276C46.0653 52.9815 47.6399 52.4346 49.2732 51.997C59.5488 49.2437 69.9787 51.3949 78.0601 57.0127C69.5785 48.4512 56.9614 44.4233 44.4401 47.3604C44.0686 47.4476 43.6971 47.5409 43.3259 47.6403C40.8357 48.3076 38.4773 49.2206 36.27 50.3461C21.5572 57.8483 13.5569 74.7918 17.9861 91.3216C21.4239 104.152 31.4712 113.454 43.5088 116.573C34.5797 112.416 27.4928 104.503 24.7508 94.2693C21.554 82.3387 25.0479 70.1856 32.9374 61.7662C36.1377 58.3509 40.0613 55.55 44.555 53.6276Z" fill="#132452"/>
<path d="M135.256 21.9179C123.688 25.9418 115.347 35.4235 112.403 46.6206C116.592 37.7147 124.549 30.6368 134.825 27.8834C135.988 27.5718 137.153 27.323 138.317 27.1349C142.661 26.4326 146.983 26.5776 151.092 27.4611C163.36 30.0987 173.738 39.3184 177.198 52.2311C179.94 62.4644 177.76 72.8614 172.105 80.9256C180.97 72.2054 185.02 59.1261 181.583 46.296C176.942 28.9786 160.261 18.0891 142.897 20.1541C141.2 20.3559 139.496 20.6815 137.797 21.1368C136.934 21.3681 136.087 21.6289 135.256 21.9179Z" fill="#132452"/>
<path d="M113.432 117.514C132.609 112.376 142.185 106.636 144.575 104.409C135.593 102.849 115.993 93.622 111.828 78.0774C107.662 62.5327 119.505 59.1611 125.65 58.308L111.526 50.1921L103.164 52.4327C95.5822 54.4642 83.4281 49.3905 78.2988 46.5997C83.2057 52.4252 91.1971 56.8292 94.5794 58.303C94.5794 58.303 86.6276 68.764 91.2391 85.9742C94.9282 99.7423 84.4799 115.751 78.7946 122.035C82.3502 122.669 94.2557 122.652 113.432 117.514Z" fill="#132452"/>
<path d="M119.473 145.897C112.66 150.265 105.065 153.673 96.8257 155.88C73.5746 162.11 49.9826 157.501 31.4522 145.156C57.1503 165.511 91.8888 173.864 126.077 164.703C160.885 155.376 187.11 130.042 198.894 98.7985C188.433 119.83 169.297 136.462 144.767 143.034C136.301 145.303 127.792 146.212 119.473 145.897Z" fill="#B2061E"/>
<path d="M0.397547 97.0317C11.6452 138.197 54.1977 162.542 95.6356 151.439C101.29 149.924 106.632 147.827 111.614 145.23C97.1351 143.318 83.4861 137.695 71.9631 129.107C43.5665 127.121 17.8897 115.56 0.397547 97.0317Z" fill="#B2061E"/>
<path d="M201.874 37.289C213.704 81.4407 187.354 126.863 143.02 138.742C137.231 140.293 131.421 141.196 125.669 141.495C123.083 141.629 120.509 141.641 117.954 141.535C103.653 140.943 89.9355 136.656 78.0386 129.384C90.0221 129.641 102.411 128.203 114.809 124.881C125.316 122.065 135.142 118.081 144.133 113.149C146.131 112.053 148.088 110.91 150.002 109.722C178.284 92.1789 197.218 64.9365 201.454 35.7798C201.598 36.2805 201.738 36.7835 201.874 37.289Z" fill="#B2061E"/>
<path d="M142.727 164.407L114.854 171.875L133.402 185.351L142.727 164.407Z" fill="#132452"/>
</g>
</svg>
