<svg width="1148" height="1617" viewBox="0 0 1148 1617" fill="none" xmlns="http://www.w3.org/2000/svg">
<g opacity="0.04">
<path d="M583.36 42.1398C451.845 102.482 362.847 217.547 331.171 347.685C394.66 242.532 489.422 154.595 609.648 99.4332C729.874 44.2712 858.337 29.7879 979.456 50.2393C860.145 -10.6225 714.876 -18.202 583.36 42.1398Z" fill="#132452"/>
<path d="M332.328 565.445C344.947 557.31 358.298 549.971 372.343 543.527C460.714 502.98 557.986 506.39 639.407 544.631C549.873 480.479 430.018 463.51 321.694 509.151C318.48 510.505 315.276 511.915 312.084 513.379C290.668 523.205 270.816 535.044 252.651 548.566C131.572 638.697 85.4361 803.618 150.661 945.775C201.287 1056.11 306.063 1124.54 419.304 1134.21C332.483 1110.43 256.507 1049.98 216.128 961.974C169.051 859.371 181.92 744.515 240.113 656.57C263.719 620.895 294.783 589.649 332.328 565.445Z" fill="#132452"/>
<path d="M1101.02 140.815C1002.95 194.789 942.31 292.999 932.932 398.398C957.044 311.736 1017.9 235.774 1106.27 195.228C1116.27 190.638 1126.39 186.612 1136.58 183.136C1174.66 170.154 1213.82 164.841 1252.2 166.508C1366.78 171.485 1474.41 238.664 1525.36 349.714C1565.74 437.721 1562.01 534.742 1523.41 616.064C1589.94 523.914 1606.4 399.861 1555.78 289.522C1487.44 140.591 1320.46 68.0201 1167.16 113.221C1152.18 117.638 1137.33 123.18 1122.72 129.886C1115.29 133.292 1108.06 136.939 1101.02 140.815Z" fill="#132452"/>
<path d="M1050.79 1035.6C1215.71 959.931 1293.2 893.554 1311.33 869.824C1228 869.523 1037.27 816.402 975.928 682.717C914.591 549.033 1016.14 500.515 1070.2 483.417L930.5 431.922L858.587 464.917C793.386 494.833 676.102 467.731 625.61 450.441C678.745 495.416 757.496 522.859 790.229 530.958C790.229 530.958 734.602 637.395 802.511 785.403C856.838 903.809 787.213 1064.06 745.609 1129.39C778.618 1129.65 885.866 1111.27 1050.79 1035.6Z" fill="#132452"/>
<path d="M1148.68 1282.09C1093.99 1331.88 1030.77 1374.22 959.912 1406.73C759.952 1498.48 540.319 1493.08 354.446 1410.23C617.17 1554.27 942.972 1576.33 1236.99 1441.43C1536.34 1304.08 1733.84 1035.64 1792.17 736.078C1730.12 941.604 1583.17 1120.77 1372.21 1217.56C1299.4 1250.97 1224.12 1272.19 1148.68 1282.09Z" fill="#B2061E"/>
<path d="M0.925637 1024.16C165.318 1377.85 586.019 1532.04 942.387 1368.53C991.012 1346.22 1035.93 1319.15 1076.85 1288.12C943.46 1293.06 811.866 1263.3 694.886 1203.57C435.979 1229.16 186.914 1164.32 0.925637 1024.16Z" fill="#B2061E"/>
<path d="M1724.81 177.288C1899.03 556.995 1731.17 1006.62 1349.89 1181.56C1300.11 1204.4 1249.14 1221.43 1197.77 1232.93C1174.68 1238.1 1151.5 1242.16 1128.31 1245.12C998.55 1261.68 868.385 1244.06 750.053 1196.76C858.422 1180.72 967.846 1148.79 1074.47 1099.87C1164.84 1058.41 1247.26 1007.46 1320.73 949.247C1337.05 936.312 1352.93 923.017 1368.36 909.387C1596.33 707.997 1725.2 433.535 1718.72 164.332C1720.79 168.623 1722.82 172.941 1724.81 177.288Z" fill="#B2061E"/>
<path d="M1386.56 1413.26L1146.85 1523.24L1334.61 1616.26L1386.56 1413.26Z" fill="#132452"/>
</g>
</svg>
