<svg width="28" height="40" viewBox="0 0 28 40" fill="none" xmlns="http://www.w3.org/2000/svg">
<path d="M28 14C28 21.732 14 39.2778 14 39.2778C14 39.2778 0 21.732 0 14C0 6.26801 6.26801 0 14 0C21.732 0 28 6.26801 28 14Z" fill="white"/>
<path d="M13.7947 5.44434C12.3879 5.44434 11.1349 6.1063 10.3274 7.13721C11.3147 6.45927 12.5086 6.06281 13.7947 6.06281C15.0807 6.06281 16.2746 6.45927 17.2619 7.13721C16.4544 6.1063 15.2014 5.44434 13.7947 5.44434Z" fill="#1D1F21"/>
<path d="M9.45475 9.08383C9.59924 9.06292 9.74696 9.0521 9.89721 9.0521C10.8425 9.0521 11.6882 9.4805 12.2526 10.1547C11.7216 9.21624 10.7313 8.57452 9.58902 8.53832C9.55513 8.53725 9.5211 8.53671 9.48695 8.53671C9.25787 8.53671 9.03445 8.56105 8.81911 8.60731C7.38378 8.91566 6.30745 10.1976 6.30745 11.7322C6.30745 12.9233 6.95588 13.9621 7.91733 14.5117C7.24654 13.9445 6.82027 13.0945 6.82027 12.1445C6.82027 11.0369 7.39965 10.0653 8.27044 9.51914C8.62367 9.2976 9.02485 9.14606 9.45475 9.08383Z" fill="#1D1F21"/>
<path d="M17.9689 8.4423C16.8835 8.52236 15.9494 9.15005 15.4393 10.0516C16.0037 9.37742 16.8494 8.94902 17.7947 8.94902C17.9017 8.94902 18.0074 8.95451 18.1116 8.96522C18.5006 9.00523 18.8682 9.11808 19.2006 9.28999C20.1929 9.80317 20.8716 10.8426 20.8716 12.0414C20.8716 12.9914 20.4454 13.8414 19.7746 14.4086C20.736 13.8591 21.3844 12.8202 21.3844 11.6291C21.3844 10.0214 20.2031 8.691 18.6652 8.46687C18.515 8.44497 18.3613 8.43363 18.2049 8.43363C18.1255 8.43363 18.0468 8.43655 17.9689 8.4423Z" fill="#1D1F21"/>
<path d="M13.8972 16.2161C15.6613 16.2161 16.6152 15.9412 16.8716 15.8038C16.1366 15.4602 14.6665 14.206 14.6665 12.7629C14.6665 11.3198 15.7605 11.3027 16.3075 11.3714L15.2818 10.3406H14.5126C13.8152 10.3406 12.8887 9.61903 12.5126 9.25826C12.7998 9.87673 13.3844 10.4437 13.6408 10.6498C13.6408 10.6498 12.7177 11.3714 12.7177 12.9691C12.7177 14.2473 11.4528 15.3915 10.8203 15.8038C11.1109 15.9412 12.1331 16.2161 13.8972 16.2161Z" fill="#1D1F21"/>
<path d="M13.7629 18.8147C13.0777 19.035 12.3474 19.1538 11.5895 19.1538C9.4506 19.1538 7.53171 18.2071 6.22515 16.7077C7.9627 19.0672 10.7522 20.597 13.8972 20.597C17.0993 20.597 19.9329 19.0112 21.6628 16.5785C20.2813 18.1574 18.2563 19.1538 15.9998 19.1538C15.221 19.1538 14.4697 19.0351 13.7629 18.8147Z" fill="#B2061E"/>
<path d="M4.6665 11.8185C4.68517 15.6452 7.77756 18.7415 11.5895 18.7415C12.1097 18.7415 12.6164 18.6839 13.1037 18.5746C11.905 18.0729 10.8628 17.2691 10.0713 16.2578C7.6797 15.4267 5.74174 13.8294 4.6665 11.8185Z" fill="#B2061E"/>
<path d="M23.3332 11.3198C23.3332 15.4187 20.0269 18.7415 15.9485 18.7415C15.416 18.7415 14.8966 18.6849 14.396 18.5772C14.171 18.5288 13.9498 18.4702 13.7328 18.4017C12.519 18.0185 11.4403 17.3288 10.5864 16.4228C11.609 16.7232 12.7054 16.8861 13.8459 16.8861C14.8126 16.8861 15.7475 16.7691 16.6327 16.5505C16.8294 16.502 17.0236 16.4484 17.2152 16.39C20.0461 15.5268 22.2977 13.6065 23.3319 11.1794C23.3327 11.2261 23.3332 11.2729 23.3332 11.3198Z" fill="#B2061E"/>
<path d="M15.3331 20.9577H12.769L14.0511 22.5554L15.3331 20.9577Z" fill="#1D1F21"/>
</svg>
