<svg width="82" height="82" viewBox="0 0 82 82" fill="none" xmlns="http://www.w3.org/2000/svg">
<path d="M60.9409 31.6934H1.05907C0.750305 31.6934 0.5 31.9437 0.5 32.2524V70.1343C0.5 70.4431 0.750305 70.6934 1.05907 70.6934H60.9409C61.2497 70.6934 61.5 70.4431 61.5 70.1343V32.2524C61.5 31.9437 61.2497 31.6934 60.9409 31.6934Z" stroke="#020105"/>
<path d="M80.9409 8.5H21.0591C20.7503 8.5 20.5 8.7503 20.5 9.05907V46.9409C20.5 47.2497 20.7503 47.5 21.0591 47.5H80.9409C81.2497 47.5 81.5 47.2497 81.5 46.9409V9.05907C81.5 8.7503 81.2497 8.5 80.9409 8.5Z" stroke="#020105"/>
<path d="M58.0033 0H44C43.4477 0 43 0.447715 43 0.999999V15.0033C43 15.5556 43.4477 16.0033 44 16.0033H58.0033C58.5556 16.0033 59.0033 15.5556 59.0033 15.0033V1C59.0033 0.447715 58.5556 0 58.0033 0Z" fill="#B2061E"/>
<path d="M38.0033 63.1934H24C23.4477 63.1934 23 63.6411 23 64.1934V78.1967C23 78.7489 23.4477 79.1967 24 79.1967H38.0033C38.5556 79.1967 39.0033 78.7489 39.0033 78.1967V64.1934C39.0033 63.6411 38.5556 63.1934 38.0033 63.1934Z" fill="#B2061E"/>
</svg>
