<svg width="82" height="82" viewBox="0 0 82 82" fill="none" xmlns="http://www.w3.org/2000/svg">
<g clip-path="url(#clip0_655_4881)">
<mask id="mask0_655_4881" style="mask-type:luminance" maskUnits="userSpaceOnUse" x="0" y="0" width="82" height="82">
<path d="M82 0H0V82H82V0Z" fill="white"/>
</mask>
<g mask="url(#mask0_655_4881)">
<path d="M72.9409 0.5H1.05907C0.750305 0.5 0.5 0.750305 0.5 1.05907V80.9409C0.5 81.2497 0.750305 81.5 1.05907 81.5H72.9409C73.2497 81.5 73.5 81.2497 73.5 80.9409V1.05907C73.5 0.750305 73.2497 0.5 72.9409 0.5Z" stroke="#020105"/>
<path d="M81.0951 10H67.0918C66.5395 10 66.0918 10.4477 66.0918 11V25.0033C66.0918 25.5556 66.5395 26.0033 67.0918 26.0033H81.0951C81.6474 26.0033 82.0951 25.5556 82.0951 25.0033V11C82.0951 10.4477 81.6474 10 81.0951 10Z" fill="#B2061E"/>
<path d="M58.5502 10H44.5469C43.9946 10 43.5469 10.4477 43.5469 11V25.0033C43.5469 25.5556 43.9946 26.0033 44.5469 26.0033H58.5502C59.1025 26.0033 59.5502 25.5556 59.5502 25.0033V11C59.5502 10.4477 59.1025 10 58.5502 10Z" fill="#B2061E"/>
<path d="M36.0033 10H22C21.4477 10 21 10.4477 21 11V25.0033C21 25.5556 21.4477 26.0033 22 26.0033H36.0033C36.5556 26.0033 37.0033 25.5556 37.0033 25.0033V11C37.0033 10.4477 36.5556 10 36.0033 10Z" fill="#B2061E"/>
<path d="M81.0951 30.3125H67.0918C66.5395 30.3125 66.0918 30.7602 66.0918 31.3125V45.3158C66.0918 45.8681 66.5395 46.3158 67.0918 46.3158H81.0951C81.6474 46.3158 82.0951 45.8681 82.0951 45.3158V31.3125C82.0951 30.7602 81.6474 30.3125 81.0951 30.3125Z" fill="#B2061E"/>
<path d="M58.5502 30.3125H44.5469C43.9946 30.3125 43.5469 30.7602 43.5469 31.3125V45.3158C43.5469 45.8681 43.9946 46.3158 44.5469 46.3158H58.5502C59.1025 46.3158 59.5502 45.8681 59.5502 45.3158V31.3125C59.5502 30.7602 59.1025 30.3125 58.5502 30.3125Z" fill="#B2061E"/>
<path d="M36.0033 30.3125H22C21.4477 30.3125 21 30.7602 21 31.3125V45.3158C21 45.8681 21.4477 46.3158 22 46.3158H36.0033C36.5556 46.3158 37.0033 45.8681 37.0033 45.3158V31.3125C37.0033 30.7602 36.5556 30.3125 36.0033 30.3125Z" fill="#B2061E"/>
<path d="M81.0951 50.6245H67.0918C66.5395 50.6245 66.0918 51.0722 66.0918 51.6245V65.6278C66.0918 66.1801 66.5395 66.6278 67.0918 66.6278H81.0951C81.6474 66.6278 82.0951 66.1801 82.0951 65.6278V51.6245C82.0951 51.0722 81.6474 50.6245 81.0951 50.6245Z" fill="#132452"/>
<path d="M58.5502 50.6245H44.5469C43.9946 50.6245 43.5469 51.0722 43.5469 51.6245V65.6278C43.5469 66.1801 43.9946 66.6278 44.5469 66.6278H58.5502C59.1025 66.6278 59.5502 66.1801 59.5502 65.6278V51.6245C59.5502 51.0722 59.1025 50.6245 58.5502 50.6245Z" fill="#B2061E"/>
<path d="M36.0033 50.6245H22C21.4477 50.6245 21 51.0722 21 51.6245V65.6278C21 66.1801 21.4477 66.6278 22 66.6278H36.0033C36.5556 66.6278 37.0033 66.1801 37.0033 65.6278V51.6245C37.0033 51.0722 36.5556 50.6245 36.0033 50.6245Z" fill="#B2061E"/>
</g>
</g>
<defs>
<clipPath id="clip0_655_4881">
<rect width="82" height="82" fill="white"/>
</clipPath>
</defs>
</svg>
