<svg width="82" height="82" viewBox="0 0 82 82" fill="none" xmlns="http://www.w3.org/2000/svg">
<path d="M70.9409 11.5H11.0591C10.7503 11.5 10.5 11.7503 10.5 12.0591V70.9409C10.5 71.2497 10.7503 71.5 11.0591 71.5H70.9409C71.2497 71.5 71.5 71.2497 71.5 70.9409V12.0591C71.5 11.7503 71.2497 11.5 70.9409 11.5Z" stroke="#020105"/>
<path d="M78.0033 3H64C63.4477 3 63 3.44771 63 4V18.0033C63 18.5556 63.4477 19.0033 64 19.0033H78.0033C78.5556 19.0033 79.0033 18.5556 79.0033 18.0033V4C79.0033 3.44772 78.5556 3 78.0033 3Z" fill="#B2061E"/>
<path d="M18.0033 3H4C3.44772 3 3 3.44771 3 4V18.0033C3 18.5556 3.44771 19.0033 4 19.0033H18.0033C18.5556 19.0033 19.0033 18.5556 19.0033 18.0033V4C19.0033 3.44772 18.5556 3 18.0033 3Z" fill="#B2061E"/>
<path d="M37.1953 54.707L39.1953 44.707L31.1953 41.707L45.1953 26.707L43.1953 36.707L51.1953 39.707L37.1953 54.707Z" fill="#B2061E"/>
<path d="M78.0033 63H64C63.4477 63 63 63.4477 63 64V78.0033C63 78.5556 63.4477 79.0033 64 79.0033H78.0033C78.5556 79.0033 79.0033 78.5556 79.0033 78.0033V64C79.0033 63.4477 78.5556 63 78.0033 63Z" fill="#B2061E"/>
<path d="M18.0033 63H4C3.44772 63 3 63.4477 3 64V78.0033C3 78.5556 3.44771 79.0033 4 79.0033H18.0033C18.5556 79.0033 19.0033 78.5556 19.0033 78.0033V64C19.0033 63.4477 18.5556 63 18.0033 63Z" fill="#B2061E"/>
</svg>
