<svg width="28" height="40" viewBox="0 0 28 40" fill="none" xmlns="http://www.w3.org/2000/svg">
<path d="M27.5 14C27.5 15.8129 26.6697 18.2723 25.3618 20.9951C24.0626 23.6997 22.3256 26.5974 20.5815 29.2648C18.8386 31.9304 17.0948 34.3567 15.7862 36.1172C15.1321 36.9971 14.5872 37.7102 14.2061 38.2028C14.1309 38.3001 14.062 38.3887 14 38.4684C13.938 38.3887 13.8691 38.3001 13.7939 38.2028C13.4128 37.7102 12.8679 36.9971 12.2138 36.1172C10.9052 34.3567 9.1614 31.9304 7.41849 29.2648C5.67443 26.5974 3.93742 23.6997 2.6382 20.9951C1.33025 18.2723 0.5 15.8129 0.5 14C0.5 6.54416 6.54416 0.5 14 0.5C21.4558 0.5 27.5 6.54416 27.5 14Z" fill="#F8F8F8" stroke="#C2C2C3"/>
<path d="M13.7942 5.44434C12.3874 5.44434 11.1344 6.1063 10.3269 7.13721C11.3143 6.45927 12.5081 6.06281 13.7942 6.06281C15.0802 6.06281 16.2741 6.45927 17.2614 7.13721C16.4539 6.1063 15.201 5.44434 13.7942 5.44434Z" fill="#3F4246"/>
<path d="M9.45426 9.08383C9.59875 9.06292 9.74648 9.0521 9.89672 9.0521C10.842 9.0521 11.6877 9.4805 12.2521 10.1547C11.7211 9.21624 10.7308 8.57452 9.58853 8.53832C9.55464 8.53725 9.52061 8.53671 9.48646 8.53671C9.25738 8.53671 9.03397 8.56105 8.81863 8.60731C7.38329 8.91566 6.30696 10.1976 6.30696 11.7322C6.30696 12.9233 6.9554 13.9621 7.91684 14.5117C7.24605 13.9445 6.81978 13.0945 6.81978 12.1445C6.81978 11.0369 7.39917 10.0653 8.26995 9.51914C8.62318 9.2976 9.02436 9.14606 9.45426 9.08383Z" fill="#3F4246"/>
<path d="M17.9684 8.4423C16.883 8.52236 15.949 9.15005 15.4388 10.0516C16.0032 9.37742 16.8489 8.94902 17.7942 8.94902C17.9012 8.94902 18.0069 8.95451 18.1111 8.96522C18.5001 9.00523 18.8677 9.11808 19.2001 9.28999C20.1924 9.80317 20.8711 10.8426 20.8711 12.0414C20.8711 12.9914 20.4449 13.8414 19.7741 14.4086C20.7355 13.8591 21.384 12.8202 21.384 11.6291C21.384 10.0214 20.2026 8.691 18.6648 8.46687C18.5145 8.44497 18.3608 8.43363 18.2044 8.43363C18.125 8.43363 18.0463 8.43655 17.9684 8.4423Z" fill="#3F4246"/>
<path d="M13.8967 16.2161C15.6608 16.2161 16.6147 15.9412 16.8711 15.8038C16.1361 15.4602 14.666 14.206 14.666 12.7629C14.666 11.3198 15.76 11.3027 16.307 11.3714L15.2814 10.3406H14.5121C13.8147 10.3406 12.8882 9.61903 12.5121 9.25826C12.7993 9.87673 13.3839 10.4437 13.6403 10.6498C13.6403 10.6498 12.7172 11.3714 12.7172 12.9691C12.7172 14.2473 11.4523 15.3915 10.8198 15.8038C11.1104 15.9412 12.1326 16.2161 13.8967 16.2161Z" fill="#3F4246"/>
<path d="M13.7625 18.8147C13.0772 19.035 12.347 19.1538 11.589 19.1538C9.45012 19.1538 7.53123 18.2071 6.22466 16.7077C7.96221 19.0672 10.7517 20.597 13.8967 20.597C17.0988 20.597 19.9324 19.0112 21.6623 16.5785C20.2808 18.1574 18.2558 19.1538 15.9993 19.1538C15.2205 19.1538 14.4692 19.0351 13.7625 18.8147Z" fill="#B2061E"/>
<path d="M4.66602 11.8185C4.68468 15.6452 7.77707 18.7415 11.589 18.7415C12.1092 18.7415 12.6159 18.6839 13.1033 18.5746C11.9045 18.0729 10.8623 17.2691 10.0708 16.2578C7.67922 15.4267 5.74125 13.8294 4.66602 11.8185Z" fill="#B2061E"/>
<path d="M23.3327 11.3198C23.3327 15.4187 20.0265 18.7415 15.948 18.7415C15.4155 18.7415 14.8961 18.6849 14.3955 18.5772C14.1705 18.5288 13.9493 18.4702 13.7324 18.4017C12.5185 18.0185 11.4398 17.3288 10.5859 16.4228C11.6085 16.7232 12.7049 16.8861 13.8455 16.8861C14.8121 16.8861 15.747 16.7691 16.6322 16.5505C16.8289 16.502 17.0231 16.4484 17.2147 16.39C20.0456 15.5268 22.2972 13.6065 23.3314 11.1794C23.3322 11.2261 23.3327 11.2729 23.3327 11.3198Z" fill="#B2061E"/>
<path d="M15.3326 20.9577H12.7685L14.0506 22.5554L15.3326 20.9577Z" fill="#3F4246"/>
</svg>
