<svg width="454" height="412" viewBox="0 0 454 412" fill="none" xmlns="http://www.w3.org/2000/svg">
<g opacity="0.04">
<path d="M222.01 0C187.795 0 157.321 15.9388 137.681 40.7609C161.695 24.4375 190.732 14.8916 222.01 14.8916C253.288 14.8916 282.325 24.4375 306.339 40.7609C286.698 15.9388 256.225 0 222.01 0Z" fill="#132452"/>
<path d="M116.457 87.6316C119.971 87.128 123.564 86.8675 127.218 86.8675C150.209 86.8675 170.778 97.1825 184.506 113.415C171.589 90.8195 147.504 75.3684 119.723 74.4967C118.898 74.4709 118.071 74.4578 117.24 74.4578C111.669 74.4578 106.235 75.0441 100.997 76.1579C66.088 83.5824 39.9101 114.448 39.9101 151.398C39.9101 180.077 55.681 205.091 79.0647 218.324C62.7501 204.665 52.3827 184.2 52.3827 161.325C52.3827 134.657 66.4741 111.263 87.6528 98.1129C96.2439 92.7786 106.001 89.1297 116.457 87.6316Z" fill="#132452"/>
<path d="M323.533 72.1848C297.134 74.1125 274.417 89.2259 262.009 110.933C275.736 94.7006 296.305 84.3855 319.296 84.3855C321.898 84.3855 324.47 84.5177 327.004 84.7757C336.466 85.7389 345.406 88.4562 353.491 92.5954C377.624 104.952 394.132 129.98 394.132 158.843C394.132 181.718 383.764 202.183 367.45 215.842C390.833 202.609 406.604 177.595 406.604 148.916C406.604 110.206 377.872 78.173 340.469 72.7763C336.814 72.2489 333.076 71.9759 329.274 71.9759C327.343 71.9759 325.428 72.0463 323.533 72.1848Z" fill="#132452"/>
<path d="M224.504 259.361C267.41 259.361 290.609 252.743 296.845 249.434C278.968 241.161 243.213 210.964 243.213 176.217C243.213 141.47 269.821 141.056 283.126 142.711L258.18 117.892H239.471C222.509 117.892 199.975 100.518 190.828 91.8313C197.813 106.723 212.032 120.373 218.268 125.337C218.268 125.337 195.817 142.711 195.817 181.181C195.817 211.957 165.052 239.506 149.669 249.434C156.737 252.743 181.599 259.361 224.504 259.361Z" fill="#132452"/>
<path d="M221.238 321.932C204.573 327.234 186.811 330.097 168.378 330.097C116.356 330.097 69.686 307.3 37.9085 271.199C80.1681 328.011 148.013 364.844 224.504 364.844C302.384 364.844 371.3 326.662 413.375 268.087C379.774 306.105 330.524 330.097 275.642 330.097C256.699 330.097 238.427 327.238 221.238 321.932Z" fill="#B2061E"/>
<path d="M0 153.477C0.453869 245.616 75.6653 320.169 168.378 320.169C181.028 320.169 193.353 318.781 205.206 316.15C176.051 304.069 150.703 284.715 131.452 260.365C73.2854 240.354 26.1514 201.894 0 153.477Z" fill="#B2061E"/>
<path d="M454 141.47C454 240.163 373.588 320.169 274.395 320.169C261.442 320.169 248.81 318.805 236.635 316.213C231.162 315.048 225.782 313.635 220.506 311.986C190.984 302.759 164.748 286.152 143.98 264.338C168.852 271.571 195.518 275.494 223.257 275.494C246.767 275.494 269.505 272.676 291.034 267.414C295.818 266.244 300.543 264.954 305.202 263.548C374.055 242.764 428.816 196.529 453.968 138.088C453.989 139.213 454 140.34 454 141.47Z" fill="#B2061E"/>
<path d="M259.428 373.53H197.065L228.246 412L259.428 373.53Z" fill="#132452"/>
</g>
</svg>
